# Blender v2.93.1 OBJ File: 'untitled.blend'
# www.blender.org
mtllib maze.mtl
o unityexport
v -3.880000 2.500001 -10.000000
v -3.880000 -0.000000 0.170000
v -3.880000 0.000000 -10.000000
v 6.550000 2.500000 7.680000
v 6.150000 2.500000 7.680000
v 6.150000 -0.000000 7.680000
v 6.550000 -0.000000 7.680000
v 6.550000 -0.000000 3.180000
v 6.150000 -0.000000 3.180000
v 6.150000 2.340000 3.180000
v 6.550000 2.340000 3.180000
v 6.550000 2.340000 3.180000
v 6.550000 2.500000 7.680000
v 6.550000 -0.000000 7.680000
v 6.550000 -0.000000 3.180000
v 6.150000 2.500000 7.680000
v 6.150000 2.340000 3.180000
v 6.150000 -0.000000 3.180000
v 6.150000 -0.000000 7.680000
v 3.882515 2.500000 0.135138
v 3.651041 2.500000 0.461358
v 3.651041 -0.000000 0.461358
v 3.882515 -0.000000 0.135138
v -4.280000 2.500001 -9.990000
v -10.000000 0.000000 -10.010001
v -4.280000 0.000000 -9.990000
v 3.651041 2.500000 0.461358
v -3.874293 2.500001 -4.878350
v -3.874293 0.854505 -4.878350
v -3.874293 0.000000 -4.878350
v 3.651041 -0.000000 0.461358
v -3.880000 2.500000 0.170000
v -4.280000 2.500000 0.170000
v -4.280000 -0.000000 0.170000
v -3.880000 -0.000000 0.170000
v -3.880000 2.500001 0.170000
v -4.280000 2.500001 0.170000
v -4.280000 -0.000000 0.170000
v 7.730000 2.500000 1.360000
v 7.330000 2.500000 1.360000
v 7.330000 -0.000000 1.360000
v 7.730000 -0.000000 1.360000
v 7.722080 2.340000 -3.877313
v 7.730000 2.500000 1.360000
v 7.730000 -0.000000 1.360000
v 7.722080 0.000000 -3.868210
v 7.330000 2.500000 1.360000
v 7.330230 2.340000 -1.460000
v 7.330230 0.648000 -1.460000
v 7.330000 -0.000000 1.360000
v 7.330230 0.000000 -1.460000
v -0.220000 2.500000 7.480000
v -0.620000 2.500000 7.480000
v -0.620000 -0.000000 7.480000
v -0.220000 -0.000000 7.480000
v -0.620000 1.266000 4.671878
v -0.620000 2.500000 4.671878
v -7.040001 2.500000 4.669999
v -7.040001 -0.000000 4.669999
v -0.220000 2.500000 4.671878
v -0.220000 2.500000 7.480000
v -0.220000 -0.000000 7.480000
v -0.220000 -0.000000 4.671878
v -0.220000 1.386000 4.671878
v -0.620000 2.500000 7.480000
v -0.620000 -0.000000 4.671878
v -0.620000 -0.000000 7.480000
v -1.250001 2.500000 -6.010001
v -1.250001 2.500000 -6.410001
v -1.250001 0.000000 -6.410001
v -1.250001 0.000000 -6.010001
v 9.974624 2.500001 -6.009999
v -1.250001 2.500001 -6.010001
v -1.250001 0.000000 -6.010001
v 9.974624 0.000000 -6.009999
v -1.250001 2.500001 -6.410001
v 10.002432 2.500001 -6.409999
v 10.002432 0.000000 -6.409999
v -1.250001 0.000000 -6.410001
v -7.040001 2.500000 4.669999
v -7.040001 2.500000 4.269999
v -7.040001 -0.000000 4.269999
v -7.040001 -0.000000 4.669999
v 2.960000 -0.000000 4.670001
v 2.960001 -0.000000 4.270000
v 2.960001 2.500000 4.270000
v 2.960001 2.500000 4.670001
v 2.960001 2.500000 4.670001
v 2.960001 -0.000000 4.670001
v -7.040001 2.500000 4.269999
v 2.960001 2.500000 4.270000
v 2.960001 -0.000000 4.270000
v -7.040001 -0.000000 4.269999
v -4.340000 -0.000000 6.910000
v -4.740000 -0.000000 6.910000
v -4.740000 2.500000 6.910000
v -4.340000 2.500000 6.910000
v -4.340000 2.500000 6.910000
v -4.340000 2.499998 9.998694
v -4.340000 1.497573 9.998694
v -4.340000 -0.000000 9.998694
v -4.340000 -0.000000 6.910000
v -4.740000 2.499998 9.998694
v -4.740000 2.500000 6.910000
v -4.740000 -0.000000 6.910000
v -4.740000 -0.000000 9.998694
v -4.740000 1.558179 9.998694
v 5.510000 2.340000 -1.460000
v 5.510000 2.340000 -1.860000
v 5.510000 0.000000 -1.860000
v 5.510000 0.000000 -1.460000
v 5.510000 2.340000 -1.460000
v 5.510000 0.000000 -1.460000
v 5.510000 2.340000 -1.860000
v 7.330230 2.340000 -1.860000
v 7.330230 0.408000 -1.860000
v 7.330230 0.000000 -1.860000
v 5.510000 0.000000 -1.860000
v 9.997569 2.500001 -10.000000
v 9.986096 0.000000 -10.000979
v 7.330018 2.340000 -3.522311
v 7.330018 0.000000 -3.522311
v -6.880000 2.500000 4.400000
v -7.280000 2.500000 4.400000
v -7.280000 -0.000000 4.400000
v -6.880000 -0.000000 4.400000
v -6.880000 0.000000 -3.600000
v -7.280000 0.000000 -3.600000
v -7.280000 2.500000 -3.600000
v -6.880000 2.500000 -3.600000
v -6.880000 2.500001 -3.600000
v -6.880000 2.500000 4.400000
v -6.880000 -0.000000 4.400000
v -6.880000 0.000000 -3.600000
v -7.280000 2.500000 4.400000
v -7.280000 2.500001 -3.600000
v -7.280000 0.000000 -3.600000
v -7.280000 -0.000000 4.400000
v -10.000000 2.499998 10.001957
v -10.000000 -0.000000 10.001957
v 10.000000 -0.000000 10.000979
v -10.000000 2.500001 -10.010001
v 10.025377 2.499998 10.001959
vt 0.000000 0.000000
vt 0.000000 0.000000
vt 0.000000 0.000000
vt 1.000000 1.000000
vt 0.000000 1.000000
vt 0.000000 0.000000
vt 1.000000 0.000000
vt 1.000000 1.000000
vt 0.000000 1.000000
vt 0.000000 0.000000
vt 1.000000 0.000000
vt 1.000000 1.000000
vt 0.000000 1.000000
vt 0.000000 0.000000
vt 1.000000 0.000000
vt 1.000000 1.000000
vt 0.000000 1.000000
vt 0.000000 0.000000
vt 1.000000 0.000000
vt 1.000000 1.000000
vt 0.000000 1.000000
vt 0.000000 0.000000
vt 1.000000 0.000000
vt 0.000000 0.000000
vt 0.000000 0.000000
vt 0.000000 0.000000
vt 1.000000 1.000000
vt 0.014177 0.504835
vt 0.014177 0.000000
vt 1.000000 0.000000
vt 1.000000 1.000000
vt 0.000000 1.000000
vt 0.000000 0.000000
vt 1.000000 0.000000
vt 0.000000 1.000000
vt 0.504835 0.504835
vt 1.000000 1.000000
vt 1.000000 0.000000
vt 1.000000 1.000000
vt 0.000000 1.000000
vt 0.000000 0.000000
vt 1.000000 0.000000
vt 1.045641 1.000000
vt 0.000000 1.000000
vt 0.000000 0.000000
vt 1.045641 -0.000000
vt 1.000000 1.000000
vt 0.436000 1.000000
vt 0.436000 0.436000
vt 1.000000 0.000000
vt 0.436000 0.000000
vt 1.000000 1.000000
vt 0.000000 1.000000
vt 0.000000 0.000000
vt 1.000000 0.000000
vt 0.642000 0.642000
vt 0.000000 1.000000
vt 0.000000 0.000000
vt 0.936041 1.000000
vt 0.000000 1.000000
vt 0.000000 0.000000
vt 0.936041 0.682000
vt 0.936041 0.000000
vt 1.000000 1.000000
vt 0.063959 0.642000
vt 0.063959 0.000000
vt 1.000000 0.000000
vt 1.000000 1.000000
vt 0.000000 1.000000
vt 0.000000 0.000000
vt 1.000000 0.000000
vt 1.009023 1.000000
vt 0.000000 1.000000
vt 0.000000 0.000000
vt 1.009023 0.000000
vt 1.000000 1.000000
vt -0.009023 1.000000
vt -0.009023 -0.000000
vt 1.000000 0.000000
vt 1.000000 1.000000
vt 0.000000 1.000000
vt 0.000000 0.000000
vt 1.000000 0.000000
vt 1.000000 1.000000
vt 0.000000 1.000000
vt 0.000000 0.000000
vt 1.000000 0.000000
vt 0.642000 1.000000
vt 0.682000 0.682000
vt 0.642000 0.000000
vt 0.682000 0.000000
vt 1.000000 1.000000
vt 0.000000 1.000000
vt 0.000000 0.000000
vt 1.000000 0.000000
vt 1.000000 1.000000
vt 0.000000 1.000000
vt 0.000000 0.000000
vt 1.000000 0.000000
vt 1.000000 1.000000
vt 0.021088 0.719192
vt 0.021088 0.000000
vt 1.000000 0.000000
vt 0.978912 1.000000
vt 0.000000 1.000000
vt 0.000000 0.000000
vt 0.978912 0.739394
vt 0.978912 0.000000
vt 1.000000 1.000000
vt 0.000000 1.000000
vt 0.000000 0.000000
vt 1.000000 0.000000
vt 0.910115 1.000000
vt 0.000000 1.000000
vt 0.000000 0.000000
vt 0.910115 0.436000
vt 0.910115 0.000000
vt 1.000000 1.000000
vt 0.089885 0.356000
vt 0.089885 0.000000
vt 1.000000 0.000000
vt 0.997191 1.000000
vt 0.997191 0.000000
vt 0.034000 1.000000
vt 0.034000 0.000000
vt 0.356000 0.356000
vt 0.356000 0.000000
vt 1.000000 1.000000
vt 0.000000 1.000000
vt 0.000000 0.000000
vt 1.000000 0.000000
vt 1.000000 1.000000
vt 0.000000 1.000000
vt 0.000000 0.000000
vt 1.000000 0.000000
vt 1.000000 1.000000
vt 0.000000 1.000000
vt 0.000000 0.000000
vt 1.000000 0.000000
vt 1.000000 1.000000
vt 0.000000 1.000000
vt 0.000000 0.000000
vt 1.000000 0.000000
vt 1.000000 1.000000
vt 1.000000 0.000000
vt 0.000000 0.000000
vt 0.000000 1.000000
vt 0.021088 1.000000
vt 0.000000 1.000000
vt 0.014177 1.000000
vt 1.000000 1.000000
vt 0.504835 1.000000
vt 0.063959 1.000000
vt 1.000000 1.000000
vt 0.682000 1.000000
vt 1.000000 0.000000
vt 0.089885 1.000000
vt 0.356000 1.000000
vn 1.0000 0.0000 0.0000
vn 0.0000 0.0000 1.0000
vn 0.0000 0.0000 -1.0000
vn -1.0000 0.0000 0.0000
vn 0.8156 -0.0000 0.5787
vn -0.7083 0.0000 0.7059
vn -0.0035 0.0000 1.0000
vn -0.5787 -0.0000 0.8156
vn 1.0000 0.0000 0.0006
vn 1.0000 -0.0000 0.0002
vn 1.0000 0.0000 -0.0002
vn 1.0000 -0.0000 -0.0015
vn -1.0000 0.0000 -0.0001
vn 0.0002 -0.0000 1.0000
vn -0.0003 0.0000 1.0000
vn 0.0003 0.0000 1.0000
vn -1.0000 0.0015 0.0025
vn -1.0000 0.0028 0.0034
vn -1.0000 0.0046 0.0045
vn -1.0000 0.0000 0.0001
vn -0.0006 0.0000 -1.0000
vn 0.0002 0.0004 -1.0000
vn 0.0002 0.0000 -1.0000
vn 0.0001 0.0001 1.0000
vn 0.0000 -0.0004 1.0000
vn -0.9999 0.0098 0.0031
vn -1.0000 0.0009 0.0017
vn -1.0000 0.0000 0.0016
vn -1.0000 0.0017 0.0025
vn -1.0000 0.0000 0.0014
vn -1.0000 0.0031 0.0034
vn 0.0001 0.0000 1.0000
vn -1.0000 0.0092 0.0030
vn -0.9999 0.0101 0.0032
vn -1.0000 0.0003 0.0016
vn 1.0000 -0.0000 -0.0005
vn 1.0000 -0.0000 0.0004
vn 1.0000 -0.0000 0.0007
vn 0.0006 0.0000 1.0000
vn -1.0000 0.0000 0.0015
usemtl 32254bdb72b2477224edbcfd2e6228d7
s off
f 1/1/1 2/2/1 3/3/1
s 1
f 4/4/2 5/5/2 6/6/2
f 7/7/2 4/4/2 6/6/2
f 8/8/3 9/9/3 10/10/3
f 11/11/3 8/8/3 10/10/3
f 12/12/1 13/13/1 14/14/1
f 15/15/1 12/12/1 14/14/1
f 16/16/4 17/17/4 18/18/4
f 19/19/4 16/16/4 18/18/4
f 20/20/5 21/21/5 22/22/5
f 23/23/5 20/20/5 22/22/5
f 24/24/6 25/25/7 26/26/6
f 27/27/8 29/28/8 30/29/8
f 31/30/8 27/27/8 30/29/8
f 32/31/2 33/32/2 34/33/2
f 35/34/2 32/31/2 34/33/2
f 36/35/9 2/2/10 29/36/11
f 24/24/6 26/26/6 37/37/4
f 38/38/4 37/37/4 26/26/6
f 39/39/2 40/40/2 41/41/2
f 42/42/2 39/39/2 41/41/2
f 43/43/12 44/44/12 45/45/12
f 46/46/12 43/43/12 45/45/12
f 47/47/13 48/48/13 49/49/13
f 50/50/13 49/49/13 51/51/13
f 52/52/2 53/53/2 54/54/2
f 55/55/2 52/52/2 54/54/2
f 56/56/14 58/57/15 59/58/15
f 60/59/1 61/60/1 62/61/1
f 64/62/1 62/61/1 63/63/1
f 65/64/4 56/65/4 66/66/4
f 67/67/4 65/64/4 66/66/4
f 68/68/4 69/69/4 70/70/4
f 71/71/4 68/68/4 70/70/4
f 72/72/2 73/73/2 74/74/2
f 75/75/2 72/72/2 74/74/2
f 76/76/3 77/77/3 78/78/3
f 79/79/3 76/76/3 78/78/3
f 80/80/4 81/81/4 82/82/4
f 83/83/4 80/80/4 82/82/4
f 84/84/1 85/85/1 86/86/1
f 87/87/1 84/84/1 86/86/1
f 57/88/16 56/56/2 64/89/16
f 66/90/2 63/91/2 56/56/2
f 90/92/3 91/93/3 92/94/3
f 93/95/3 90/92/3 92/94/3
f 94/96/3 95/97/3 96/98/3
f 97/99/3 94/96/3 96/98/3
f 98/100/1 100/101/1 101/102/1
f 102/103/1 98/100/1 101/102/1
f 103/104/4 104/105/4 105/106/4
f 107/107/4 105/106/4 106/108/4
f 108/109/4 109/110/4 110/111/4
f 111/112/4 108/109/4 110/111/4
f 48/113/2 112/114/2 113/115/2
f 49/116/2 113/115/2 51/117/2
f 114/118/3 116/119/3 117/120/3
f 118/121/3 114/118/3 117/120/3
f 78/78/17 119/122/18 120/123/19
f 121/124/20 122/125/20 116/126/20
f 116/126/20 122/125/20 117/127/20
f 123/128/2 124/129/2 125/130/2
f 126/131/2 123/128/2 125/130/2
f 127/132/3 128/133/3 129/134/3
f 130/135/3 127/132/3 129/134/3
f 131/136/1 132/137/1 133/138/1
f 134/139/1 131/136/1 133/138/1
f 135/140/4 136/141/4 137/142/4
f 138/143/4 135/140/4 137/142/4
f 25/25/1 139/144/1 140/145/1
f 139/144/21 103/104/21 107/107/21
f 141/146/22 101/102/23 100/101/23
f 1/1/24 120/123/25 119/122/25
f 141/146/26 72/72/27 75/75/28
f 24/24/6 142/147/7 25/25/7
f 78/78/29 77/77/30 119/122/31
f 25/25/1 142/147/1 139/144/1
f 107/107/21 106/108/21 140/145/21
f 140/145/21 139/144/21 107/107/21
f 99/148/23 143/149/23 100/101/23
f 143/149/22 141/146/22 100/101/23
f 1/1/32 3/3/32 120/123/32
f 141/146/33 143/149/34 72/72/35
f 27/27/8 28/150/8 29/28/8
f 29/36/11 1/151/36 28/152/37
f 28/152/38 36/35/9 29/36/11
f 50/50/13 47/47/13 49/49/13
f 56/56/14 57/88/15 58/57/15
f 64/62/1 60/59/1 62/61/1
f 65/64/4 57/153/4 56/65/4
f 64/89/39 88/154/39 60/155/39
f 60/155/16 57/88/16 64/89/16
f 63/91/32 89/156/32 64/89/39
f 89/156/32 88/154/39 64/89/39
f 64/89/16 56/56/2 63/91/2
f 56/56/14 59/58/15 66/90/2
f 98/100/1 99/148/1 100/101/1
f 107/107/4 103/104/4 105/106/4
f 49/116/2 48/113/2 113/115/2
f 114/118/3 115/157/3 116/119/3
f 116/126/4 49/49/4 115/158/4
f 49/49/4 48/48/4 115/158/4
f 115/158/20 121/124/20 116/126/20
f 117/127/4 51/51/4 116/126/4
f 51/51/4 49/49/4 116/126/4
f 44/44/40 43/43/40 46/46/40
o Plane
v 10.000000 0.001250 10.000000
v -10.000000 0.000250 -10.005000
v -10.000000 0.001250 10.000000
v 10.000000 0.001250 -10.005000
vt 1.000000 0.000000
vt 0.000000 1.000000
vt 0.000000 0.000000
vt 1.000000 1.000000
vn 0.0000 1.0000 -0.0000
vn -0.0001 1.0000 0.0000
usemtl None
s off
f 144/159/41 145/160/41 146/161/41
f 144/159/42 147/162/42 145/160/42
o unityexport.001
v -3.879077 2.500000 -5.372356
v -1.765183 2.500000 -3.870001
v -1.765183 1.559135 -3.870001
v -3.879077 0.000000 -5.372356
v -1.765183 0.000000 -3.870001
v 7.336332 2.340000 -3.469999
v -1.195470 2.500000 -3.470001
v -1.195470 1.336024 -3.470001
v -1.195470 0.000000 -3.470001
v 7.336332 0.000000 -3.469999
v 7.722592 2.339998 -3.870000
v 7.721159 0.000000 -3.870000
v 6.499044 0.000000 -3.870000
v 5.279363 0.000000 -3.870000
v 4.059681 0.000000 -3.870000
v 2.840000 0.000000 -3.870001
v 1.620318 0.000000 -3.870001
v 0.400637 0.000000 -3.870001
v -0.819045 0.000000 -3.870001
v 3.882515 -0.000000 0.135138
v 3.882515 2.500000 0.135138
vt 1.016782 1.000000
vt 0.739712 1.000000
vt 0.739712 0.739712
vt 1.016782 0.000000
vt 0.739712 0.000000
vt 0.960810 1.000000
vt 0.086422 0.665341
vt 0.086422 0.000000
vt 0.960810 -0.000000
vt 0.971966 1.000000
vt -0.000396 0.999999
vt -0.000249 -0.000001
vt 0.625000 0.000000
vt 0.750000 0.000000
vt 0.665341 0.665341
vt 0.000000 0.000000
vt 0.665341 0.000000
vt 0.000000 1.000000
vt 0.086422 1.000000
vt 0.875000 0.000000
vt 0.971966 0.000000
vt 0.971966 0.739712
vt 0.125000 0.000000
vt 0.250000 0.000000
vt 0.375000 0.000000
vt 0.500000 0.000000
vt 0.665341 1.000000
vn 0.5793 0.0000 -0.8151
vn -0.0000 0.0000 1.0000
vn 0.0000 0.0000 -1.0000
vn 0.5786 -0.0000 -0.8156
vn 0.5782 0.0000 -0.8159
vn 0.5789 0.0000 -0.8154
vn 0.5781 0.0000 -0.8160
vn 0.5783 0.0000 -0.8158
vn 0.5784 -0.0000 -0.8157
vn 0.5787 -0.0000 -0.8156
usemtl 32254bdb72b2477224edbcfd2e6228d7
s 1
f 148/163/43 149/164/43 150/165/43
f 151/166/43 150/165/43 152/167/43
f 153/168/44 155/169/44 156/170/44
f 157/171/44 153/168/44 156/170/44
f 149/172/45 158/173/45 159/174/45
f 149/172/45 164/175/45 165/176/45
f 155/177/46 167/178/46 156/179/47
f 168/180/48 167/178/46 155/177/46
f 151/166/43 148/163/43 150/165/43
f 153/168/44 154/181/44 155/169/44
f 166/182/45 152/183/45 150/184/45
f 150/184/45 149/172/45 165/176/45
f 149/172/45 159/174/45 160/185/45
f 160/185/45 161/186/45 149/172/45
f 161/186/45 162/187/45 149/172/45
f 149/172/45 162/187/45 163/188/45
f 165/176/45 166/182/45 150/184/45
f 163/188/45 164/175/45 149/172/45
f 156/179/49 152/167/49 155/177/50
f 152/167/49 150/165/51 155/177/50
f 155/177/50 150/165/51 154/189/52
f 150/165/51 149/164/46 154/189/52
f 154/189/48 168/180/48 155/177/46
